<?xml version="1.0" encoding="utf-8"?>
<!-- Generator: Adobe Illustrator 16.0.0, SVG Export Plug-In . SVG Version: 6.00 Build 0)  -->
<!DOCTYPE svg PUBLIC "-//W3C//DTD SVG 1.1//EN" "http://www.w3.org/Graphics/SVG/1.1/DTD/svg11.dtd">
<svg version="1.1" id="Layer_1" xmlns="http://www.w3.org/2000/svg" xmlns:xlink="http://www.w3.org/1999/xlink" x="0px" y="0px"
	 width="95px" height="284px" viewBox="0 0 95 284" enable-background="new 0 0 95 284" xml:space="preserve">
<g>
	<path fill-rule="evenodd" clip-rule="evenodd" fill="#E88C6A" d="M47.963,4.529c-72.338,0-48.949,124.764,0.154,124.764
		S120.303,4.529,47.963,4.529z"/>
	<path fill-rule="evenodd" clip-rule="evenodd" fill="#FCDABE" d="M33.277,265.023c-3.373,4.885-7.867,7.693-8.988,11.217
		c-0.635,1.99-0.164,4.51,1.859,4.762c8.711,1.076,11.24-3.201,14.342-4.072c5.361-1.502,5.498-4.586,3.33-11.906
		C41.652,257.705,35.992,260.455,33.277,265.023z"/>
	<path fill-rule="evenodd" clip-rule="evenodd" fill="#FCDABE" d="M28.191,172.215h39.852l-5.086,92.809H52.414l-2.145-70.588
		c-0.17-5.597-4.133-5.63-4.305,0l-2.145,70.588H33.277L28.191,172.215z"/>
	<path fill-rule="evenodd" clip-rule="evenodd" fill="#FCDABE" d="M65.025,116.736l20.961,27.229
		c2.979,3.869,10.596-3.701,8.316-7.529l-16.457-27.648C71.912,98.817,58.295,107.992,65.025,116.736z"/>
	<path fill-rule="evenodd" clip-rule="evenodd" fill="#FCDABE" d="M30.631,116.736L9.67,143.759
		c-2.992,3.859-10.607-3.708-8.316-7.528l16.457-27.442C23.779,98.837,37.395,108.016,30.631,116.736z"/>
	<path fill-rule="evenodd" clip-rule="evenodd" fill="#FCDABE" d="M72.469,151.482L72.469,151.482
		c0.047-0.453-0.656-0.609-1.082-0.417l-6.293,2.838c-0.426,0.191-0.418,0.672-0.463,1.125v0.001
		c-0.047,0.453,0.654,0.608,1.08,0.416l6.293-2.837C72.432,152.416,72.639,151.907,72.469,151.482z"/>
	<path fill-rule="evenodd" clip-rule="evenodd" fill="#FCDABE" d="M23.189,151.482L23.189,151.482
		c-0.047-0.453,0.654-0.609,1.08-0.417l6.293,2.838c0.426,0.191,0.418,0.672,0.465,1.125v0.001c0.045,0.453-0.656,0.608-1.082,0.416
		l-6.293-2.837C23.225,152.416,23.018,151.907,23.189,151.482z"/>
	<path fill-rule="evenodd" clip-rule="evenodd" fill="#E3687F" d="M10.602,120.81l7.209-12.021c4.4-7.338,12.959-4.273,14.438,1.339
		l-6.783,13.27l-4.627,5.965L10.602,120.81z"/>
	<path fill-rule="evenodd" clip-rule="evenodd" fill="#E3687F" d="M85.59,120.81l-7.209-12.021
		c-4.4-7.338-12.959-4.273-14.438,1.339l6.783,13.27l4.627,5.965L85.59,120.81z"/>
	<polygon fill-rule="evenodd" clip-rule="evenodd" fill="#FF94A8" points="71.838,104.26 68.041,172.215 47.791,172.215 
		28.191,172.215 24.396,104.26 	"/>
	<path fill-rule="evenodd" clip-rule="evenodd" fill="#FCDABE" d="M48.117,67.432L48.117,67.432c6.305,0,11.465,5.158,11.465,11.464
		v24.893c0,6.306-5.16,11.464-11.465,11.464l0,0c-6.305,0-11.465-5.158-11.465-11.464V78.896
		C36.652,72.59,41.813,67.432,48.117,67.432z"/>
	<path fill-rule="evenodd" clip-rule="evenodd" fill="#E0BA9B" d="M59.582,95.799L59.582,95.799c0,9.572-22.93,9.572-22.93,0l0,0
		C36.652,86.228,59.582,86.228,59.582,95.799z"/>
	<path fill-rule="evenodd" clip-rule="evenodd" fill="#FCDABE" d="M48.117,8.029c-50.16,0-46.32,47.022-36.75,63.566
		C24.43,94.174,41.994,99.17,48.117,99.17s23.688-4.996,36.748-27.574C94.438,55.052,98.277,8.029,48.117,8.029z"/>
	<polygon fill-rule="evenodd" clip-rule="evenodd" fill="#4E6078" points="27.348,157.097 29.668,199.143 66.463,199.143 
		68.881,157.184 	"/>
	<path fill-rule="evenodd" clip-rule="evenodd" fill="#FCDABE" d="M62.98,265.023c3.373,4.885,7.865,7.693,8.988,11.217
		c0.635,1.99,0.164,4.51-1.861,4.762c-8.709,1.076-11.24-3.201-14.34-4.072c-5.361-1.502-5.5-4.586-3.33-11.906
		C54.605,257.705,60.266,260.455,62.98,265.023z"/>
	<path fill-rule="evenodd" clip-rule="evenodd" fill="#FCDABE" d="M3.658,48.16c3.262-0.811,7.225,3.553,8.852,9.745
		c1.627,6.191,0.301,11.867-2.963,12.677c-3.262,0.81-7.225-3.553-8.852-9.745C-0.932,54.646,0.395,48.97,3.658,48.16z"/>
	<path fill-rule="evenodd" clip-rule="evenodd" fill="#FCDABE" d="M92.598,48.16c-3.264-0.811-7.227,3.553-8.852,9.745
		c-1.627,6.191-0.301,11.867,2.961,12.677c3.264,0.81,7.227-3.553,8.852-9.745C97.186,54.646,95.859,48.97,92.598,48.16z"/>
	<g>
		<path fill-rule="evenodd" clip-rule="evenodd" fill="#425156" d="M61.52,62.391c1.713,0,3.109-2.489,3.109-5.542
			s-1.396-5.542-3.109-5.542c-1.715,0-3.111,2.489-3.111,5.542S59.805,62.391,61.52,62.391z"/>
		<path fill-rule="evenodd" clip-rule="evenodd" fill="#425156" d="M34.715,62.391c1.715,0,3.111-2.489,3.111-5.542
			s-1.396-5.542-3.111-5.542c-1.713,0-3.111,2.489-3.111,5.542S33.002,62.391,34.715,62.391z"/>
	</g>
	<path fill-rule="evenodd" clip-rule="evenodd" fill="#BF9470" d="M64.301,75.404c-6.211,12.38-26.156,12.38-32.367,0
		C41.262,80.41,54.973,80.41,64.301,75.404z"/>
	<path fill-rule="evenodd" clip-rule="evenodd" fill="#E0BA9B" d="M54.41,68.658c-2.416,5.986-10.17,5.881-12.586,0
		C45.361,71.928,50.682,72.08,54.41,68.658z"/>
	<path fill-rule="evenodd" clip-rule="evenodd" fill="#E88C6A" d="M17.949,38.646c-7.596,6.656-7.119,16.273-6.602,22.941
		S8.93,63.55,7.133,58.32c-1.797-5.229-3.076-10.497-2.674-16.396C4.861,36.022,21.572,26.576,17.949,38.646z"/>
	<path fill-rule="evenodd" clip-rule="evenodd" fill="#E88C6A" d="M78.332,38.646c7.596,6.656,7.117,16.273,6.602,22.941
		c-0.518,6.668,2.418,1.963,4.215-3.267c1.797-5.229,3.076-10.497,2.672-16.396C91.418,36.022,74.709,26.576,78.332,38.646z"/>
	<path fill-rule="evenodd" clip-rule="evenodd" fill="#E3687F" d="M27.117,272.014c-1.311,1.418-2.361,2.76-2.828,4.227
		c-1.592,4.99,2.596,5.227,6.297,4.846c5.281-0.545,7.408-3.455,9.904-4.156c4.816-1.35,5.416-3.977,3.916-9.803
		c-0.205,5.084-8.23,8.363-10.24,8.969C32.156,276.703,27.496,273.992,27.117,272.014z"/>
	<path fill-rule="evenodd" clip-rule="evenodd" fill="#E3687F" d="M69.143,272.014c1.311,1.418,2.361,2.76,2.828,4.227
		c1.697,5.326-3.361,5.34-7.145,4.734c-4.67-0.748-6.697-3.383-9.057-4.045c-4.816-1.35-5.416-3.977-3.916-9.803
		c0.205,5.084,8.264,8.822,10.359,8.969C64.309,276.244,69.832,272.631,69.143,272.014z"/>
	<path fill-rule="evenodd" clip-rule="evenodd" fill="#E88C6A" d="M74.521,21.373c-5.643,16.486-50.617,36.4-67.553,26.896
		c-7.025-5.232,2.939-29.562,18.938-37.741C44.785,0.876,71.258,3.941,74.521,21.373z"/>
	<path fill-rule="evenodd" clip-rule="evenodd" fill="#E88C6A" d="M56.182,9.678c3.354,15.901,22.422,41.123,32.654,42.218
		C98.873,26.994,69.42,3.436,56.182,9.678z"/>
	<path fill-rule="evenodd" clip-rule="evenodd" fill="#FCDABE" d="M71.998,150.546l14.014-16.146
		c7.117-3.057,13.668,6.013,5.338,10.437l-14.734,13.857L71.998,150.546z"/>
	<path fill-rule="evenodd" clip-rule="evenodd" fill="#FCDABE" d="M70.256,151.688l2.506-1.573l4.635,8.238l-2.506,1.574
		C67.186,164.462,60.924,157.225,70.256,151.688z"/>
	<path fill-rule="evenodd" clip-rule="evenodd" fill="#FCDABE" d="M23.658,150.546L9.645,134.192
		c-7.115-3.057-13.668,6.014-5.338,10.437l14.734,14.064L23.658,150.546z"/>
	<path fill-rule="evenodd" clip-rule="evenodd" fill="#FCDABE" d="M25.4,151.688l-2.506-1.574l-4.635,8.239l2.506,1.574
		C28.471,164.462,34.732,157.225,25.4,151.688z"/>
	<polygon fill-rule="evenodd" clip-rule="evenodd" fill="#FF94A8" points="35.986,104.26 48.117,115.252 59.582,104.108 
		70.727,124.143 25.465,123.396 	"/>
	<g>
		<polygon fill-rule="evenodd" clip-rule="evenodd" fill="#E3687F" points="52.531,106.848 48.117,115.252 62.648,104.26 
			59.582,100.885 		"/>
		<polygon fill-rule="evenodd" clip-rule="evenodd" fill="#E3687F" points="43.703,106.848 48.117,115.252 33.586,104.26 
			36.652,100.885 		"/>
	</g>
	<path fill-rule="evenodd" clip-rule="evenodd" fill="#FFFFFF" d="M36.652,100.885l-3.066,3.375l2.934,12.7l7.184-10.112
		L36.652,100.885L36.652,100.885z M59.582,100.885l3.066,3.375l-2.934,12.7l-7.184-10.112L59.582,100.885z"/>
	<path fill-rule="evenodd" clip-rule="evenodd" fill="#E82C4F" d="M65.289,69.29c0.328-0.005,0.668-0.019,1.016-0.044
		c7.963-0.586,9.813-3.807,10.572-7.879c0.834-4.471,0.846-6.028,2.113-6.438c0.932-0.302,1.129-1.302,1.059-2.467
		s-0.117-1.29-1.691-1.781c-1.232-0.385-7.99-0.948-13.068-0.684v1.206c3.988-0.18,7.842,0.263,8.98,0.916
		c2.613,1.499,2.107,8.699,0.07,12.263c-1.434,2.508-5.443,3.763-9.051,3.773V69.29z M48.682,52.548
		c-1.762,0.038-11.57-1.851-16.709-2.261c-0.334-0.026-0.676-0.049-1.027-0.067v1.206c4.146,0.187,8.438,1.045,9.977,3.04
		c2.537,3.288-1.549,11.304-5.426,13.085c-1.213,0.557-2.836,0.832-4.551,0.827v1.136c7.025,0.098,9.451-4.432,10.26-5.937
		c1.508-2.81,3.588-6.682,7.533-6.682s4.854,3.581,6.361,6.39c0.809,1.505,3.17,6.097,10.189,6.005v-1.135
		c-1.715,0.005-3.34-0.271-4.551-0.827c-3.877-1.781-7.965-9.797-5.426-13.085c1.537-1.995,5.83-2.854,9.977-3.04v-1.206
		c-0.352,0.019-0.695,0.04-1.027,0.067C59.662,50.432,52.826,52.459,48.682,52.548z M30.945,50.22
		c-5.078-0.265-11.836,0.3-13.068,0.685c-1.574,0.491-1.621,0.616-1.691,1.781c-0.07,1.164,0.127,2.164,1.057,2.466
		c1.27,0.411,1.281,1.969,2.115,6.439c0.76,4.072,2.609,7.293,10.57,7.878c0.35,0.025,0.689,0.04,1.018,0.045v-1.136
		c-3.607-0.011-7.617-1.267-9.051-3.773c-2.037-3.563-2.543-10.763,0.07-12.263c1.139-0.652,4.992-1.096,8.98-0.916V50.22z"/>
	<path fill="#E3687F" d="M36.598,275.328c-0.027-0.156-0.084-0.334-0.168-0.523c-0.49-1.111-1.752-2.355-3.256-3.285
		c-1.447-0.895-3.363-1.465-4.648-1.293c0.664-0.686,1.355-1.404,2.043-2.174c1.223,0.264,2.764,0.803,3.889,1.498
		c1.883,1.162,3.496,2.803,4.176,4.342c0.156,0.354,0.268,0.713,0.326,1.072L36.598,275.328z"/>
	<path fill="#E3687F" d="M59.771,275.328c0.025-0.156,0.084-0.334,0.168-0.523c0.49-1.111,1.752-2.355,3.256-3.285
		c1.447-0.895,3.363-1.465,4.648-1.293c-0.666-0.686-1.357-1.404-2.043-2.174c-1.223,0.264-2.764,0.803-3.891,1.498
		c-1.881,1.162-3.496,2.803-4.174,4.342c-0.156,0.354-0.268,0.713-0.326,1.072L59.771,275.328z"/>
	<path fill-rule="evenodd" clip-rule="evenodd" fill="#E88C6A" d="M58.408,43.287c2.51-1.879,6.389-1.758,8.824,0.065
		c1.219,0.913,0.813,1.265,0.02,0.727c-3.08-2.093-5.932-1.178-8.123,0.375C57.967,45.278,57.125,44.247,58.408,43.287z"/>
</g>
</svg>
