<?xml version="1.0" encoding="utf-8"?>
<!-- Generator: Adobe Illustrator 16.0.0, SVG Export Plug-In . SVG Version: 6.00 Build 0)  -->
<!DOCTYPE svg PUBLIC "-//W3C//DTD SVG 1.1//EN" "http://www.w3.org/Graphics/SVG/1.1/DTD/svg11.dtd">
<svg version="1.1" id="Layer_1" xmlns="http://www.w3.org/2000/svg" xmlns:xlink="http://www.w3.org/1999/xlink" x="0px" y="0px"
	 width="102px" height="304px" viewBox="0 0 102 304" enable-background="new 0 0 102 304" xml:space="preserve">
<g>
	<path fill-rule="evenodd" clip-rule="evenodd" fill="#AA7764" d="M51.354,15.815c-64.691,0-49.104,85.746,0,85.746
		S116.043,15.815,51.354,15.815z"/>
	<path fill-rule="evenodd" clip-rule="evenodd" fill="#E3687F" d="M30.705,277.31c-4.514,6.723-10.527,10.59-12.029,15.439
		c-2.426,7.832,6.307,7.84,11.443,6.365c4.813-1.383,7.457-4.613,10.238-5.414c7.174-2.07,7.357-6.314,4.455-16.391
		S34.338,271.019,30.705,277.31z"/>
	<path fill-rule="evenodd" clip-rule="evenodd" fill="#E3687F" d="M71.682,277.31c4.514,6.723,10.525,10.59,12.027,15.439
		c2.473,7.98-6.732,7.736-11.73,6.26c-4.734-1.4-7.191-4.514-9.949-5.309c-7.174-2.07-7.359-6.314-4.457-16.391
		S68.049,271.019,71.682,277.31z"/>
	<path fill-rule="evenodd" clip-rule="evenodd" fill="#869AB5" d="M25.969,190.483h50.768v92.444H55.65v-67.132
		c0-5.761-8.594-5.796-8.594,0v67.132H25.969V190.483z"/>
	<path fill-rule="evenodd" clip-rule="evenodd" fill="#FCDABE" d="M37.852,129.127l-12.35,38.874
		c-1.572,4.951-6.912,7.717-11.863,6.143l0,0c-4.953-1.572-7.717-6.911-6.145-11.863l12.35-38.873
		C23.432,112.113,41.254,118.417,37.852,129.127z"/>
	<g>
		<path fill-rule="evenodd" clip-rule="evenodd" fill="#FCDABE" d="M19.736,197.741L19.736,197.741
			c1.254,0.154,2.152,1.307,1.998,2.561l-0.684,5.531c-0.154,1.254-1.307,2.152-2.559,1.998H18.49
			c-1.252-0.156-2.152-1.307-1.996-2.561l0.682-5.531C17.33,198.485,18.482,197.586,19.736,197.741z"/>
		<path fill-rule="evenodd" clip-rule="evenodd" fill="#FCDABE" d="M21.734,200.301l0.332-3.068l-18.375-2.154l-0.332,3.068
			C1.879,211.706,20.041,215.986,21.734,200.301z"/>
	</g>
	<path fill-rule="evenodd" clip-rule="evenodd" fill="#FCDABE" d="M22.066,197.233l3.561-29.305
		c0.625-5.156-3.213-9.849-8.379-10.405l0,0c-5.166-0.559-9.85,3.213-10.406,8.377l-3.15,29.179L22.066,197.233z"/>
	<path fill-rule="evenodd" clip-rule="evenodd" fill="#FCDABE" d="M65.057,129.127l12.348,38.874
		c1.574,4.951,6.912,7.717,11.865,6.143l0,0c4.951-1.572,7.715-6.911,6.143-11.863l-12.35-38.873
		C79.475,112.113,61.654,118.417,65.057,129.127z"/>
	<g>
		<path fill-rule="evenodd" clip-rule="evenodd" fill="#FCDABE" d="M83.17,197.741L83.17,197.741
			c-1.254,0.154-2.152,1.307-1.998,2.561l0.684,5.531c0.154,1.254,1.307,2.152,2.561,1.998l0,0c1.254-0.156,2.152-1.307,1.998-2.561
			l-0.684-5.531C85.576,198.485,84.424,197.586,83.17,197.741z"/>
		<path fill-rule="evenodd" clip-rule="evenodd" fill="#FCDABE" d="M81.172,200.301l-0.33-3.068l18.373-2.154l0.332,3.07
			C101.027,211.706,82.867,215.986,81.172,200.301z"/>
	</g>
	<path fill-rule="evenodd" clip-rule="evenodd" fill="#FCDABE" d="M80.842,197.233l-3.561-29.305
		c-0.627-5.156,3.211-9.849,8.377-10.406l0,0c5.168-0.558,9.85,3.214,10.408,8.379l3.148,29.178L80.842,197.233z"/>
	<rect x="25.971" y="117.385" fill-rule="evenodd" clip-rule="evenodd" fill="#D1E2EC" width="50.766" height="80.042"/>
	<path fill-rule="evenodd" clip-rule="evenodd" fill="#FCDABE" d="M51.354,79.653L51.354,79.653c6.305,0,11.463,5.159,11.463,11.465
		v26.267c0,6.306-5.158,11.465-11.463,11.465l0,0c-6.307,0-11.465-5.159-11.465-11.465V91.118
		C39.889,84.813,45.047,79.653,51.354,79.653z"/>
	<path fill-rule="evenodd" clip-rule="evenodd" fill="#E0BA9B" d="M62.816,108.837L62.816,108.837c0,9.847-22.928,9.847-22.928,0
		l0,0C39.889,98.99,62.816,98.99,62.816,108.837z"/>
	<path fill-rule="evenodd" clip-rule="evenodd" fill="#FCDABE" d="M51.354,18.544c-64.6,0-49.035,93.761,0,93.761
		C100.387,112.305,115.951,18.544,51.354,18.544z"/>
	
		<ellipse transform="matrix(-0.2474 -0.9689 0.9689 -0.2474 -57.394 98.1438)" fill-rule="evenodd" clip-rule="evenodd" fill="#FCDABE" cx="9.418" cy="71.361" rx="11.903" ry="6.098"/>
	
		<ellipse transform="matrix(0.2474 -0.9689 0.9689 0.2474 1.0887 144.1243)" fill-rule="evenodd" clip-rule="evenodd" fill="#FCDABE" cx="93.322" cy="71.361" rx="11.903" ry="6.098"/>
	<g>
		<path fill-rule="evenodd" clip-rule="evenodd" fill="#425156" d="M64.754,74.468c1.715,0,3.111-2.562,3.111-5.701
			c0-3.141-1.396-5.702-3.111-5.702c-1.713,0-3.111,2.562-3.111,5.702C61.643,71.906,63.041,74.468,64.754,74.468z"/>
		<path fill-rule="evenodd" clip-rule="evenodd" fill="#425156" d="M37.951,74.468c1.713,0,3.111-2.562,3.111-5.701
			c0-3.141-1.398-5.702-3.111-5.702s-3.111,2.562-3.111,5.702C34.84,71.906,36.238,74.468,37.951,74.468z"/>
	</g>
	<path fill-rule="evenodd" clip-rule="evenodd" fill="#E0BA9B" d="M57.646,80.916c-2.416,6.158-10.172,6.05-12.586,0
		C48.596,84.28,53.918,84.437,57.646,80.916z"/>
	<path fill="#9AB5C4" d="M66.674,173.8c-1.742,2.811-4.027,5.122-6.674,6.714c-2.596,1.563-5.533,2.443-8.646,2.443
		c-3.115,0-6.053-0.881-8.648-2.443c-2.645-1.592-4.932-3.903-6.674-6.714l3.256-2.011c1.414,2.282,3.264,4.154,5.398,5.439
		c2.006,1.208,4.271,1.888,6.668,1.888c2.395,0,4.66-0.68,6.668-1.888c2.133-1.285,3.982-3.157,5.396-5.439L66.674,173.8
		L66.674,173.8z M36.031,147.714c1.742-2.812,4.029-5.122,6.674-6.714c2.596-1.563,5.533-2.444,8.648-2.444
		c3.113,0,6.051,0.881,8.646,2.444c2.646,1.592,4.932,3.902,6.674,6.714l-3.256,2.01c-1.414-2.281-3.264-4.154-5.396-5.438
		c-2.008-1.208-4.273-1.889-6.668-1.889c-2.396,0-4.662,0.681-6.668,1.889c-2.135,1.284-3.984,3.157-5.398,5.438L36.031,147.714z"/>
	<rect x="36.891" y="152.681" fill-rule="evenodd" clip-rule="evenodd" fill="#9AB5C4" width="28.924" height="3.543"/>
	<rect x="36.891" y="158.009" fill-rule="evenodd" clip-rule="evenodd" fill="#9AB5C4" width="28.924" height="5.495"/>
	<rect x="36.891" y="165.29" fill-rule="evenodd" clip-rule="evenodd" fill="#9AB5C4" width="28.924" height="3.542"/>
	<path fill-rule="evenodd" clip-rule="evenodd" fill="#BF9470" d="M69.963,88.181c-6.764,4.318-22.775,7.018-31.941,5.244
		C48.908,92.394,59.625,90.856,69.963,88.181z"/>
	<path fill-rule="evenodd" clip-rule="evenodd" fill="#E0BA9B" d="M60.594,93.521c-2.416,4.061-11.643,4.906-14.967,1.468
		C50.113,96.321,56.455,95.707,60.594,93.521z"/>
	<path fill-rule="evenodd" clip-rule="evenodd" fill="#C47816" d="M15.652,72.082c0.709,6.86-0.959,4.918-3.422-0.461
		s-4.26-10.745-3.828-16.057c4.154-51.29,80.414-51.919,85.869,0c0.557,5.3-1.365,10.678-3.828,16.057s-4.131,7.32-3.422,0.461
		c0.859-8.327-0.424-20.313-4.828-27.366c-7.797-12.482-17.971-5.238-31.764-5.238s-20.258-5.629-29.264,5.892
		C15.707,52.353,14.734,63.19,15.652,72.082z"/>
	<path fill-rule="evenodd" clip-rule="evenodd" fill="#C47816" d="M8.482,54.66C5.971,23.973,21.668,6.142,23.645,15.621
		c1.979,9.479,5.787,3.049,7.723-3.478c1.934-6.525,3.545-8.624,6.783-1.324s5.873,4.152,8.969-2.812c3.102-6.98,5.365-6.98,8.469,0
		c3.094,6.964,5.064,10.609,8.303,3.31c3.24-7.3,5.348-5.866,7.281,0.66c1.936,6.526,5.656,13.633,7.635,4.153
		c1.977-9.479,17.928,7.842,15.416,38.529C83.115,22.467,19.59,22.467,8.482,54.66z"/>
	<path fill-rule="evenodd" clip-rule="evenodd" fill="#C47816" d="M59.318,58.795c2.229-2.911,7.438-2.985,10.666-1.063
		c1.617,0.964,0.611,1.39-0.439,0.884c-3.393-1.637-6.771-0.672-9.172,1.52C59.1,61.298,58.082,60.413,59.318,58.795z"/>
	<path fill-rule="evenodd" clip-rule="evenodd" fill="#C47816" d="M42.129,58.795c-2.229-2.911-7.438-2.985-10.666-1.063
		c-1.617,0.964-0.611,1.39,0.439,0.884c3.393-1.637,6.771-0.672,9.172,1.52C42.348,61.298,43.365,60.413,42.129,58.795z"/>
	<path fill-rule="evenodd" clip-rule="evenodd" fill="#FF94A8" d="M19.27,291.19c-0.264,0.51-0.482,1.029-0.646,1.559
		c-2.434,7.857,6.08,7.85,11.166,6.625c5.326-1.281,7.592-4.832,10.516-5.674c3.848-1.111,5.684-2.848,6.111-5.771
		c-4.082,3.174-10.258,5.777-16.807,7.93C26.824,292.774,22.797,291.239,19.27,291.19z"/>
	<path fill="#FF94A8" d="M28.01,282.726c0.354,0.107,0.682,0.246,0.99,0.406l0.09-0.008c1.965-0.156,3.994,0.031,5.48,0.852
		c0.289,0.16,0.395,0.523,0.236,0.814c-0.16,0.289-0.523,0.395-0.813,0.236c-0.934-0.514-2.158-0.732-3.447-0.752
		c0.814,0.801,1.396,1.732,1.854,2.516c0.217,0.18,0.281,0.494,0.143,0.75c-0.16,0.289-0.523,0.395-0.814,0.236
		c-0.91-0.504-2.025-0.791-3.18-0.918c0.77,0.818,1.324,1.738,1.76,2.486c0.166,0.285,0.068,0.652-0.219,0.818
		c-0.285,0.166-0.652,0.068-0.818-0.219c-0.332-0.572-0.74-1.256-1.262-1.887v-2.443c0.834,0.051,1.668,0.174,2.453,0.385
		c-0.32-0.424-0.686-0.838-1.113-1.195c-0.189-0.16-0.395-0.309-0.613-0.443c-0.244,0.027-0.486,0.059-0.727,0.094V282.726z
		 M22.088,287.878c-0.266,0.195-0.641,0.137-0.836-0.129c-0.195-0.268-0.137-0.643,0.129-0.838c0.469-0.342,1.199-0.648,2.082-0.879
		l-0.014,0.002c-0.174,0.016-0.338-0.045-0.457-0.154c-0.061-0.039-0.117-0.09-0.164-0.152c-0.195-0.268-0.137-0.643,0.129-0.838
		c0.584-0.426,1.662-0.875,2.963-1.221c-0.094,0.004-0.189,0.01-0.287,0.02c-0.328,0.029-0.619-0.213-0.648-0.541
		c-0.029-0.33,0.213-0.621,0.541-0.65c0.939-0.086,1.762,0.01,2.484,0.229v1.729c-0.889,0.133-1.73,0.33-2.449,0.555
		c0.512,0.135,0.979,0.334,1.404,0.578c0.346-0.002,0.697,0.006,1.045,0.027v2.443c-0.248-0.301-0.523-0.592-0.828-0.854
		c-0.172-0.146-0.355-0.287-0.549-0.414C24.66,286.853,22.875,287.302,22.088,287.878z"/>
	<path fill-rule="evenodd" clip-rule="evenodd" fill="#FF94A8" d="M83.084,291.19c0.264,0.51,0.482,1.029,0.646,1.559
		c2.434,7.857-5.891,7.756-10.979,6.531c-5.326-1.281-7.779-4.738-10.701-5.58c-3.848-1.111-5.686-2.848-6.113-5.771
		c4.082,3.174,10.258,5.777,16.807,7.93C75.529,292.774,79.557,291.239,83.084,291.19z"/>
	<path fill="#FF94A8" d="M80.266,287.878c0.266,0.195,0.641,0.137,0.836-0.129c0.195-0.268,0.137-0.643-0.129-0.838
		c-0.469-0.342-1.199-0.648-2.082-0.879l0.014,0.002c0.174,0.016,0.338-0.045,0.457-0.154c0.063-0.039,0.117-0.09,0.164-0.152
		c0.195-0.268,0.137-0.643-0.129-0.838c-0.582-0.426-1.662-0.875-2.963-1.221c0.094,0.004,0.189,0.01,0.287,0.02
		c0.328,0.029,0.619-0.213,0.65-0.541c0.029-0.33-0.213-0.621-0.543-0.65c-0.939-0.086-1.762,0.01-2.486,0.229v1.729
		c0.891,0.133,1.732,0.33,2.453,0.555c-0.514,0.135-0.98,0.334-1.406,0.578c-0.346-0.002-0.697,0.006-1.047,0.027v2.443
		c0.25-0.301,0.525-0.592,0.83-0.854c0.172-0.146,0.355-0.287,0.549-0.414C77.693,286.853,79.479,287.302,80.266,287.878z
		 M74.342,282.726c-0.352,0.107-0.68,0.246-0.988,0.406l-0.09-0.008c-1.965-0.156-3.992,0.031-5.48,0.852
		c-0.289,0.16-0.395,0.523-0.236,0.814c0.16,0.289,0.523,0.395,0.814,0.236c0.932-0.514,2.156-0.732,3.445-0.752
		c-0.814,0.801-1.396,1.732-1.854,2.516c-0.217,0.18-0.281,0.494-0.141,0.75c0.158,0.289,0.523,0.395,0.813,0.236
		c0.91-0.504,2.025-0.791,3.18-0.918c-0.77,0.818-1.324,1.738-1.76,2.486c-0.164,0.285-0.068,0.652,0.219,0.818
		c0.285,0.166,0.652,0.068,0.818-0.219c0.332-0.572,0.74-1.254,1.26-1.887v-2.443c-0.832,0.051-1.666,0.174-2.449,0.385
		c0.318-0.424,0.686-0.838,1.111-1.195c0.191-0.16,0.395-0.309,0.613-0.443c0.244,0.027,0.486,0.059,0.725,0.094V282.726z"/>
</g>
</svg>
